<mxfile host="Electron" modified="2023-04-06T05:16:59.632Z" agent="Mozilla/5.0 (X11; Linux x86_64) AppleWebKit/537.36 (KHTML, like Gecko) draw.io/21.1.2 Chrome/106.0.5249.199 Electron/21.4.3 Safari/537.36" etag="R1PpDQOY799VZyyIReS1" version="21.1.2" type="device">
  <diagram name="第 1 页" id="UdvuwOFqL4fXtS-l6Lkx">
    <mxGraphModel dx="1775" dy="-85" grid="1" gridSize="10" guides="1" tooltips="1" connect="1" arrows="1" fold="1" page="1" pageScale="1" pageWidth="827" pageHeight="1169" math="0" shadow="0">
      <root>
        <mxCell id="0" />
        <mxCell id="1" parent="0" />
        <mxCell id="Vnfz4GOKr3EmYva8zlaA-1" value="TCU" style="rounded=0;whiteSpace=wrap;html=1;fontStyle=1" parent="1" vertex="1">
          <mxGeometry x="375" y="1250" width="150" height="70" as="geometry" />
        </mxCell>
        <mxCell id="Vnfz4GOKr3EmYva8zlaA-2" value="XCU" style="rounded=0;whiteSpace=wrap;html=1;verticalAlign=bottom;fontStyle=1" parent="1" vertex="1">
          <mxGeometry x="235" y="1380" width="300" height="170" as="geometry" />
        </mxCell>
        <mxCell id="Vnfz4GOKr3EmYva8zlaA-3" value="CPU1" style="rounded=0;whiteSpace=wrap;html=1;fontStyle=1" parent="1" vertex="1">
          <mxGeometry x="252.5" y="1460" width="80" height="58" as="geometry" />
        </mxCell>
        <mxCell id="Vnfz4GOKr3EmYva8zlaA-4" style="edgeStyle=orthogonalEdgeStyle;curved=1;rounded=0;orthogonalLoop=1;jettySize=auto;html=1;exitX=0.5;exitY=0;exitDx=0;exitDy=0;startArrow=classic;startFill=1;strokeWidth=2;" parent="1" source="Vnfz4GOKr3EmYva8zlaA-5" target="Vnfz4GOKr3EmYva8zlaA-6" edge="1">
          <mxGeometry relative="1" as="geometry" />
        </mxCell>
        <mxCell id="Vnfz4GOKr3EmYva8zlaA-5" value="CPU2" style="rounded=0;whiteSpace=wrap;html=1;fontStyle=1" parent="1" vertex="1">
          <mxGeometry x="345" y="1460" width="80" height="58" as="geometry" />
        </mxCell>
        <mxCell id="Vnfz4GOKr3EmYva8zlaA-6" value="交换机" style="rounded=0;whiteSpace=wrap;html=1;verticalAlign=bottom;fontStyle=1" parent="1" vertex="1">
          <mxGeometry x="252.5" y="1400" width="265" height="30" as="geometry" />
        </mxCell>
        <mxCell id="Vnfz4GOKr3EmYva8zlaA-7" style="edgeStyle=orthogonalEdgeStyle;curved=1;rounded=0;orthogonalLoop=1;jettySize=auto;html=1;exitX=0.875;exitY=0.5;exitDx=0;exitDy=0;exitPerimeter=0;startArrow=classic;startFill=1;strokeWidth=2;" parent="1" source="Vnfz4GOKr3EmYva8zlaA-8" target="Vnfz4GOKr3EmYva8zlaA-12" edge="1">
          <mxGeometry relative="1" as="geometry" />
        </mxCell>
        <mxCell id="Vnfz4GOKr3EmYva8zlaA-8" value="Network" style="ellipse;shape=cloud;whiteSpace=wrap;html=1;fontStyle=1" parent="1" vertex="1">
          <mxGeometry x="70" y="1245" width="118" height="80" as="geometry" />
        </mxCell>
        <mxCell id="Vnfz4GOKr3EmYva8zlaA-9" style="edgeStyle=orthogonalEdgeStyle;curved=1;rounded=0;orthogonalLoop=1;jettySize=auto;html=1;exitX=0.5;exitY=0;exitDx=0;exitDy=0;entryX=0.75;entryY=1;entryDx=0;entryDy=0;startArrow=classic;startFill=1;strokeWidth=2;" parent="1" source="Vnfz4GOKr3EmYva8zlaA-10" target="Vnfz4GOKr3EmYva8zlaA-6" edge="1">
          <mxGeometry relative="1" as="geometry">
            <Array as="points">
              <mxPoint x="494" y="1440" />
              <mxPoint x="451" y="1440" />
            </Array>
          </mxGeometry>
        </mxCell>
        <mxCell id="Vnfz4GOKr3EmYva8zlaA-10" value="s32g" style="rounded=0;whiteSpace=wrap;html=1;fontStyle=1" parent="1" vertex="1">
          <mxGeometry x="470" y="1460" width="47.5" height="58" as="geometry" />
        </mxCell>
        <mxCell id="Vnfz4GOKr3EmYva8zlaA-11" style="edgeStyle=orthogonalEdgeStyle;curved=1;rounded=0;orthogonalLoop=1;jettySize=auto;html=1;exitX=1;exitY=0.5;exitDx=0;exitDy=0;startArrow=classic;startFill=1;strokeWidth=2;" parent="1" source="Vnfz4GOKr3EmYva8zlaA-12" target="Vnfz4GOKr3EmYva8zlaA-1" edge="1">
          <mxGeometry relative="1" as="geometry" />
        </mxCell>
        <mxCell id="Vnfz4GOKr3EmYva8zlaA-12" value="4G module" style="rounded=0;whiteSpace=wrap;html=1;fontStyle=1" parent="1" vertex="1">
          <mxGeometry x="225" y="1250" width="85" height="70" as="geometry" />
        </mxCell>
        <mxCell id="Vnfz4GOKr3EmYva8zlaA-13" style="edgeStyle=orthogonalEdgeStyle;curved=1;rounded=0;orthogonalLoop=1;jettySize=auto;html=1;exitX=0.5;exitY=1;exitDx=0;exitDy=0;startArrow=classic;startFill=1;strokeWidth=2;" parent="1" source="Vnfz4GOKr3EmYva8zlaA-1" target="Vnfz4GOKr3EmYva8zlaA-6" edge="1">
          <mxGeometry relative="1" as="geometry" />
        </mxCell>
        <mxCell id="Vnfz4GOKr3EmYva8zlaA-14" value="...." style="rounded=0;whiteSpace=wrap;html=1;fontStyle=1" parent="1" vertex="1">
          <mxGeometry x="433.13" y="1460" width="23.75" height="58" as="geometry" />
        </mxCell>
        <mxCell id="Vnfz4GOKr3EmYva8zlaA-15" style="edgeStyle=orthogonalEdgeStyle;curved=1;rounded=0;orthogonalLoop=1;jettySize=auto;html=1;exitX=0.5;exitY=0;exitDx=0;exitDy=0;entryX=0.25;entryY=1;entryDx=0;entryDy=0;startArrow=classic;startFill=1;strokeWidth=2;" parent="1" source="Vnfz4GOKr3EmYva8zlaA-3" target="Vnfz4GOKr3EmYva8zlaA-6" edge="1">
          <mxGeometry relative="1" as="geometry" />
        </mxCell>
        <mxCell id="Vnfz4GOKr3EmYva8zlaA-16" value="LAN" style="text;html=1;align=center;verticalAlign=middle;resizable=0;points=[];autosize=1;strokeColor=none;fillColor=none;" parent="1" vertex="1">
          <mxGeometry x="383.13" y="1375" width="50" height="30" as="geometry" />
        </mxCell>
        <mxCell id="Vnfz4GOKr3EmYva8zlaA-17" value="LAN" style="text;html=1;align=center;verticalAlign=middle;resizable=0;points=[];autosize=1;strokeColor=none;fillColor=none;" parent="1" vertex="1">
          <mxGeometry x="443" y="1313" width="50" height="30" as="geometry" />
        </mxCell>
        <mxCell id="JrmZfhJUXPN1UeCV6pCf-1" value="云聚路由器" style="rounded=0;whiteSpace=wrap;html=1;fontStyle=1;align=right;" vertex="1" parent="1">
          <mxGeometry x="365" y="1795" width="150" height="70" as="geometry" />
        </mxCell>
        <mxCell id="JrmZfhJUXPN1UeCV6pCf-2" value="XCU" style="rounded=0;whiteSpace=wrap;html=1;verticalAlign=bottom;fontStyle=1" vertex="1" parent="1">
          <mxGeometry x="225" y="1925" width="300" height="170" as="geometry" />
        </mxCell>
        <mxCell id="JrmZfhJUXPN1UeCV6pCf-3" value="CPU1" style="rounded=0;whiteSpace=wrap;html=1;fontStyle=1" vertex="1" parent="1">
          <mxGeometry x="242.5" y="2005" width="80" height="58" as="geometry" />
        </mxCell>
        <mxCell id="JrmZfhJUXPN1UeCV6pCf-4" style="edgeStyle=orthogonalEdgeStyle;curved=1;rounded=0;orthogonalLoop=1;jettySize=auto;html=1;exitX=0.5;exitY=0;exitDx=0;exitDy=0;startArrow=classic;startFill=1;strokeWidth=2;" edge="1" parent="1" source="JrmZfhJUXPN1UeCV6pCf-5" target="JrmZfhJUXPN1UeCV6pCf-6">
          <mxGeometry relative="1" as="geometry" />
        </mxCell>
        <mxCell id="JrmZfhJUXPN1UeCV6pCf-5" value="CPU2" style="rounded=0;whiteSpace=wrap;html=1;fontStyle=1" vertex="1" parent="1">
          <mxGeometry x="335" y="2005" width="80" height="58" as="geometry" />
        </mxCell>
        <mxCell id="JrmZfhJUXPN1UeCV6pCf-6" value="交换机" style="rounded=0;whiteSpace=wrap;html=1;verticalAlign=bottom;fontStyle=1" vertex="1" parent="1">
          <mxGeometry x="242.5" y="1945" width="265" height="30" as="geometry" />
        </mxCell>
        <mxCell id="JrmZfhJUXPN1UeCV6pCf-7" style="edgeStyle=orthogonalEdgeStyle;curved=1;rounded=0;orthogonalLoop=1;jettySize=auto;html=1;exitX=0.875;exitY=0.5;exitDx=0;exitDy=0;exitPerimeter=0;startArrow=classic;startFill=1;strokeWidth=2;" edge="1" parent="1" source="JrmZfhJUXPN1UeCV6pCf-8" target="JrmZfhJUXPN1UeCV6pCf-12">
          <mxGeometry relative="1" as="geometry" />
        </mxCell>
        <mxCell id="JrmZfhJUXPN1UeCV6pCf-8" value="Network" style="ellipse;shape=cloud;whiteSpace=wrap;html=1;fontStyle=1" vertex="1" parent="1">
          <mxGeometry x="188" y="1790" width="118" height="80" as="geometry" />
        </mxCell>
        <mxCell id="JrmZfhJUXPN1UeCV6pCf-9" style="edgeStyle=orthogonalEdgeStyle;curved=1;rounded=0;orthogonalLoop=1;jettySize=auto;html=1;exitX=0.5;exitY=0;exitDx=0;exitDy=0;entryX=0.75;entryY=1;entryDx=0;entryDy=0;startArrow=classic;startFill=1;strokeWidth=2;" edge="1" parent="1" source="JrmZfhJUXPN1UeCV6pCf-10" target="JrmZfhJUXPN1UeCV6pCf-6">
          <mxGeometry relative="1" as="geometry">
            <Array as="points">
              <mxPoint x="484" y="1985" />
              <mxPoint x="441" y="1985" />
            </Array>
          </mxGeometry>
        </mxCell>
        <mxCell id="JrmZfhJUXPN1UeCV6pCf-10" value="s32g" style="rounded=0;whiteSpace=wrap;html=1;fontStyle=1" vertex="1" parent="1">
          <mxGeometry x="460" y="2005" width="47.5" height="58" as="geometry" />
        </mxCell>
        <mxCell id="JrmZfhJUXPN1UeCV6pCf-12" value="5G module" style="rounded=0;whiteSpace=wrap;html=1;fontStyle=1" vertex="1" parent="1">
          <mxGeometry x="373.13" y="1807.5" width="55" height="45" as="geometry" />
        </mxCell>
        <mxCell id="JrmZfhJUXPN1UeCV6pCf-13" style="edgeStyle=orthogonalEdgeStyle;curved=1;rounded=0;orthogonalLoop=1;jettySize=auto;html=1;exitX=0.5;exitY=1;exitDx=0;exitDy=0;startArrow=classic;startFill=1;strokeWidth=2;" edge="1" parent="1" source="JrmZfhJUXPN1UeCV6pCf-1" target="JrmZfhJUXPN1UeCV6pCf-6">
          <mxGeometry relative="1" as="geometry" />
        </mxCell>
        <mxCell id="JrmZfhJUXPN1UeCV6pCf-14" value="...." style="rounded=0;whiteSpace=wrap;html=1;fontStyle=1" vertex="1" parent="1">
          <mxGeometry x="423.13" y="2005" width="23.75" height="58" as="geometry" />
        </mxCell>
        <mxCell id="JrmZfhJUXPN1UeCV6pCf-15" style="edgeStyle=orthogonalEdgeStyle;curved=1;rounded=0;orthogonalLoop=1;jettySize=auto;html=1;exitX=0.5;exitY=0;exitDx=0;exitDy=0;entryX=0.25;entryY=1;entryDx=0;entryDy=0;startArrow=classic;startFill=1;strokeWidth=2;" edge="1" parent="1" source="JrmZfhJUXPN1UeCV6pCf-3" target="JrmZfhJUXPN1UeCV6pCf-6">
          <mxGeometry relative="1" as="geometry" />
        </mxCell>
        <mxCell id="JrmZfhJUXPN1UeCV6pCf-16" value="LAN" style="text;html=1;align=center;verticalAlign=middle;resizable=0;points=[];autosize=1;strokeColor=none;fillColor=none;" vertex="1" parent="1">
          <mxGeometry x="373.13" y="1920" width="50" height="30" as="geometry" />
        </mxCell>
        <mxCell id="JrmZfhJUXPN1UeCV6pCf-17" value="LAN" style="text;html=1;align=center;verticalAlign=middle;resizable=0;points=[];autosize=1;strokeColor=none;fillColor=none;" vertex="1" parent="1">
          <mxGeometry x="433" y="1858" width="50" height="30" as="geometry" />
        </mxCell>
        <mxCell id="JrmZfhJUXPN1UeCV6pCf-19" value="华为路由器" style="rounded=0;whiteSpace=wrap;html=1;fontStyle=1;align=right;" vertex="1" parent="1">
          <mxGeometry x="347" y="2205" width="150" height="70" as="geometry" />
        </mxCell>
        <mxCell id="JrmZfhJUXPN1UeCV6pCf-20" value="XCU" style="rounded=0;whiteSpace=wrap;html=1;verticalAlign=bottom;fontStyle=1" vertex="1" parent="1">
          <mxGeometry x="207" y="2335" width="300" height="170" as="geometry" />
        </mxCell>
        <mxCell id="JrmZfhJUXPN1UeCV6pCf-21" value="CPU1" style="rounded=0;whiteSpace=wrap;html=1;fontStyle=1" vertex="1" parent="1">
          <mxGeometry x="224.5" y="2415" width="80" height="58" as="geometry" />
        </mxCell>
        <mxCell id="JrmZfhJUXPN1UeCV6pCf-22" style="edgeStyle=orthogonalEdgeStyle;curved=1;rounded=0;orthogonalLoop=1;jettySize=auto;html=1;exitX=0.5;exitY=0;exitDx=0;exitDy=0;startArrow=classic;startFill=1;strokeWidth=2;" edge="1" parent="1" source="JrmZfhJUXPN1UeCV6pCf-23" target="JrmZfhJUXPN1UeCV6pCf-24">
          <mxGeometry relative="1" as="geometry" />
        </mxCell>
        <mxCell id="JrmZfhJUXPN1UeCV6pCf-23" value="CPU2" style="rounded=0;whiteSpace=wrap;html=1;fontStyle=1" vertex="1" parent="1">
          <mxGeometry x="317" y="2415" width="80" height="58" as="geometry" />
        </mxCell>
        <mxCell id="JrmZfhJUXPN1UeCV6pCf-24" value="交换机" style="rounded=0;whiteSpace=wrap;html=1;verticalAlign=bottom;fontStyle=1" vertex="1" parent="1">
          <mxGeometry x="224.5" y="2355" width="265" height="30" as="geometry" />
        </mxCell>
        <mxCell id="JrmZfhJUXPN1UeCV6pCf-25" style="edgeStyle=orthogonalEdgeStyle;curved=1;rounded=0;orthogonalLoop=1;jettySize=auto;html=1;exitX=0.875;exitY=0.5;exitDx=0;exitDy=0;exitPerimeter=0;startArrow=classic;startFill=1;strokeWidth=2;" edge="1" parent="1" source="JrmZfhJUXPN1UeCV6pCf-26" target="JrmZfhJUXPN1UeCV6pCf-29">
          <mxGeometry relative="1" as="geometry" />
        </mxCell>
        <mxCell id="JrmZfhJUXPN1UeCV6pCf-26" value="Network" style="ellipse;shape=cloud;whiteSpace=wrap;html=1;fontStyle=1" vertex="1" parent="1">
          <mxGeometry x="170" y="2200" width="118" height="80" as="geometry" />
        </mxCell>
        <mxCell id="JrmZfhJUXPN1UeCV6pCf-27" style="edgeStyle=orthogonalEdgeStyle;curved=1;rounded=0;orthogonalLoop=1;jettySize=auto;html=1;exitX=0.5;exitY=0;exitDx=0;exitDy=0;entryX=0.75;entryY=1;entryDx=0;entryDy=0;startArrow=classic;startFill=1;strokeWidth=2;" edge="1" parent="1" source="JrmZfhJUXPN1UeCV6pCf-28" target="JrmZfhJUXPN1UeCV6pCf-24">
          <mxGeometry relative="1" as="geometry">
            <Array as="points">
              <mxPoint x="466" y="2395" />
              <mxPoint x="423" y="2395" />
            </Array>
          </mxGeometry>
        </mxCell>
        <mxCell id="JrmZfhJUXPN1UeCV6pCf-28" value="s32g" style="rounded=0;whiteSpace=wrap;html=1;fontStyle=1" vertex="1" parent="1">
          <mxGeometry x="442" y="2415" width="47.5" height="58" as="geometry" />
        </mxCell>
        <mxCell id="JrmZfhJUXPN1UeCV6pCf-29" value="4G module" style="rounded=0;whiteSpace=wrap;html=1;fontStyle=1" vertex="1" parent="1">
          <mxGeometry x="355.13" y="2217.5" width="55" height="45" as="geometry" />
        </mxCell>
        <mxCell id="JrmZfhJUXPN1UeCV6pCf-30" style="edgeStyle=orthogonalEdgeStyle;curved=1;rounded=0;orthogonalLoop=1;jettySize=auto;html=1;exitX=0.5;exitY=1;exitDx=0;exitDy=0;startArrow=classic;startFill=1;strokeWidth=2;" edge="1" parent="1" source="JrmZfhJUXPN1UeCV6pCf-19" target="JrmZfhJUXPN1UeCV6pCf-24">
          <mxGeometry relative="1" as="geometry" />
        </mxCell>
        <mxCell id="JrmZfhJUXPN1UeCV6pCf-31" value="...." style="rounded=0;whiteSpace=wrap;html=1;fontStyle=1" vertex="1" parent="1">
          <mxGeometry x="405.13" y="2415" width="23.75" height="58" as="geometry" />
        </mxCell>
        <mxCell id="JrmZfhJUXPN1UeCV6pCf-32" style="edgeStyle=orthogonalEdgeStyle;curved=1;rounded=0;orthogonalLoop=1;jettySize=auto;html=1;exitX=0.5;exitY=0;exitDx=0;exitDy=0;entryX=0.25;entryY=1;entryDx=0;entryDy=0;startArrow=classic;startFill=1;strokeWidth=2;" edge="1" parent="1" source="JrmZfhJUXPN1UeCV6pCf-21" target="JrmZfhJUXPN1UeCV6pCf-24">
          <mxGeometry relative="1" as="geometry" />
        </mxCell>
        <mxCell id="JrmZfhJUXPN1UeCV6pCf-33" value="LAN" style="text;html=1;align=center;verticalAlign=middle;resizable=0;points=[];autosize=1;strokeColor=none;fillColor=none;" vertex="1" parent="1">
          <mxGeometry x="355.13" y="2330" width="50" height="30" as="geometry" />
        </mxCell>
        <mxCell id="JrmZfhJUXPN1UeCV6pCf-34" value="LAN" style="text;html=1;align=center;verticalAlign=middle;resizable=0;points=[];autosize=1;strokeColor=none;fillColor=none;" vertex="1" parent="1">
          <mxGeometry x="415" y="2268" width="50" height="30" as="geometry" />
        </mxCell>
      </root>
    </mxGraphModel>
  </diagram>
</mxfile>
